<?xml version="1.0" standalone="no"?><!DOCTYPE svg PUBLIC "-//W3C//DTD SVG 1.1//EN" "http://www.w3.org/Graphics/SVG/1.1/DTD/svg11.dtd"><svg t="1576046170465" class="icon" viewBox="0 0 1024 1024" version="1.1" xmlns="http://www.w3.org/2000/svg" p-id="9156" xmlns:xlink="http://www.w3.org/1999/xlink" width="200" height="200"><defs><style type="text/css"></style></defs><path d="M820 773.2c-91.8 0-166.4-74.6-166.4-166.4S728.2 440.4 820 440.4 986.4 515 986.4 606.8 911.8 773.2 820 773.2z m0-288c-67 0-121.6 54.5-121.6 121.6S753 728.4 820 728.4s121.6-54.5 121.6-121.6S887 485.2 820 485.2z" fill="#FFC933" p-id="9157"></path><path d="M804 645.2v-240c0-17.6-14.4-32-32-32H196v272c0 132 108 240 240 240h128c132 0 240-108 240-240z" fill="#FFE092" p-id="9158"></path><path d="M772 987.6H132c-12.4 0-22.4-10-22.4-22.4s10-22.4 22.4-22.4h640c12.4 0 22.4 10 22.4 22.4s-10 22.4-22.4 22.4z m-208-80H340c-69.8 0-135.6-27.4-185.3-77.1S77.6 715 77.6 645.2v-0.8c0-12.4 10-22.4 22.4-22.4s22.4 10 22.4 22.4v0.8c0 120 97.6 217.6 217.6 217.6h224c120 0 217.6-97.6 217.6-217.6v-240c0-5.2-4.4-9.6-9.6-9.6H132c-5.2 0-9.6 4.4-9.6 9.6V452c0 12.4-10 22.4-22.4 22.4s-22.4-10-22.4-22.4v-46.8c0-30 24.4-54.4 54.4-54.4h640c30 0 54.4 24.4 54.4 54.4v240c0 69.8-27.4 135.6-77.1 185.3-49.7 49.7-115.5 77.1-185.3 77.1zM100 590c-12.4 0-22.4-10-22.4-22.4v-39.2c0-12.4 10-22.4 22.4-22.4s22.4 10 22.4 22.4v39.2c0 12.4-10 22.4-22.4 22.4z m352-292.8c-12.4 0-22.4-10-22.4-22.4v-216c0-12.4 10-22.4 22.4-22.4s22.4 10 22.4 22.4v216c0 12.4-10 22.4-22.4 22.4z m-160 0c-12.4 0-22.4-10-22.4-22.4v-128c0-12.4 10-22.4 22.4-22.4s22.4 10 22.4 22.4v128c0 12.4-10 22.4-22.4 22.4z m320-8c-12.4 0-22.4-10-22.4-22.4v-128c0-12.4 10-22.4 22.4-22.4s22.4 10 22.4 22.4v128c0 12.4-10 22.4-22.4 22.4z" fill="#FFC933" p-id="9159"></path></svg>