<?xml version="1.0" standalone="no"?><!DOCTYPE svg PUBLIC "-//W3C//DTD SVG 1.1//EN" "http://www.w3.org/Graphics/SVG/1.1/DTD/svg11.dtd"><svg t="1578580148453" class="icon" viewBox="0 0 1024 1024" version="1.1" xmlns="http://www.w3.org/2000/svg" p-id="3655" xmlns:xlink="http://www.w3.org/1999/xlink" width="200" height="200"><defs><style type="text/css"></style></defs><path d="M222.208 631.296l-36.352 61.952s-18.432 122.368 22.528 145.408c40.448 23.04 139.776-53.248 139.776-53.248l35.328-59.392-162.304-91.648 1.024-3.072z m360.448-243.712l-162.304-92.16 23.552-39.936 162.304 91.648L629.76 307.2c19.456-32.768 7.68-74.752-25.6-94.208l-40.448-23.04c-33.792-18.944-76.8-7.68-96.256 25.088l-222.72 377.344 162.304 91.648 191.488-324.608-15.872 28.16zM796.16 746.496H465.92c-25.088 0-46.08 20.48-46.08 46.08 0 25.088 20.48 46.08 46.08 46.08h330.24c25.088 0 46.08-20.48 46.08-46.08s-20.48-46.08-46.08-46.08z" fill="#515151" p-id="3656"></path></svg>