<?xml version="1.0" standalone="no"?><!DOCTYPE svg PUBLIC "-//W3C//DTD SVG 1.1//EN" "http://www.w3.org/Graphics/SVG/1.1/DTD/svg11.dtd"><svg t="1577854167934" class="icon" viewBox="0 0 1024 1024" version="1.1" xmlns="http://www.w3.org/2000/svg" p-id="5731" xmlns:xlink="http://www.w3.org/1999/xlink" width="200" height="200"><defs><style type="text/css"></style></defs><path d="M915.2 960 108.8 960C84.032 960 64 939.968 64 915.2l0-89.6c0-24.768 20.032-44.8 44.8-44.8l806.4 0c24.768 0 44.8 20.032 44.8 44.8l0 89.6C960 939.968 939.904 960 915.2 960zM915.2 601.6 108.8 601.6C84.032 601.6 64 581.568 64 556.8L64 467.2c0-24.768 20.032-44.8 44.8-44.8l806.4 0c24.768 0 44.8 20.032 44.8 44.8l0 89.6C960 581.568 939.904 601.6 915.2 601.6zM915.2 243.2 108.8 243.2C84.032 243.2 64 223.168 64 198.4L64 108.8C64 84.032 84.032 64 108.8 64l806.4 0C939.904 64 960 84.032 960 108.8l0 89.6C960 223.168 939.904 243.2 915.2 243.2z" p-id="5732" fill="#ffffff"></path></svg>