<?xml version="1.0" standalone="no"?><!DOCTYPE svg PUBLIC "-//W3C//DTD SVG 1.1//EN" "http://www.w3.org/Graphics/SVG/1.1/DTD/svg11.dtd"><svg t="1580830126676" class="icon" viewBox="0 0 1024 1024" version="1.1" xmlns="http://www.w3.org/2000/svg" p-id="6402" width="200" height="200" xmlns:xlink="http://www.w3.org/1999/xlink"><defs><style type="text/css"></style></defs><path d="M518.6 871.1c-9 0-18-2.3-25.9-6.7-2.3-1.3-4.4-2.7-6.4-4.2l-10-6.9c-24.8-17.2-82.7-57.5-121.2-87.3-74.9-58.3-130.5-107.8-170-151.2-40.8-44.8-64.6-83.5-72.8-118.4-7.5-22.9-11.6-49.3-11.9-76.4-1-73.3 26.8-144.2 76.3-194.5 45.4-46.2 105.1-71.8 168-72h0.1c62.5 0 120.6 22.3 165.8 63.2 19.4-18.5 41.4-33.5 65.7-44.8 31.1-14.4 64.4-21.9 99-22.4h4.5c133.8 0 244.2 116.7 246.1 260.2 0.3 27.2-3.3 53.9-10.7 79.4-6.9 33.7-29.8 72.6-69.8 118.8-38.5 44.4-94 96.4-164.9 154.5-54.9 45.3-99.8 79-133.2 100.3-8.5 5.5-18.5 8.4-28.7 8.4zM344.8 194.6c-51.9 0.2-101.2 21.4-138.9 59.8-41.8 42.5-65.3 102.7-64.5 165.2 0.3 23 3.9 46 10.1 64.9l0.3 0.9 0.2 1c12.9 56.9 87.6 137.8 228.2 247.2 37.7 29.1 95 69 119.5 86l0.1 0.1 11.1 7.7c0.5 0.4 1.1 0.8 1.7 1.1 1.8 1 3.9 1.5 6 1.5 2.4 0 4.8-0.7 6.8-2 32-20.3 75.4-53 129.1-97.3 69.1-56.6 122.9-107 159.9-149.6 35.1-40.5 55.5-74.4 60.8-100.8l0.2-0.9 0.3-0.9c6.5-21.8 9.6-44.7 9.3-68.2-1.6-121.1-93.5-219.7-205-219.7h-4.1c-57.9 0.8-111 25.3-149.5 68.9l-15 17L496 260c-39.2-42.2-92.9-65.4-151.2-65.4z" fill="#D81E06" p-id="6403"></path></svg>